<svg version="1.1" xmlns="http://www.w3.org/2000/svg" viewBox="0 0 400 400">
    <g>
        <path
            d="M212.338 35.352 C 211.638 35.902,210.560 39.055,209.867 42.578 C 207.226 56.013,201.801 62.472,190.890 65.175 C 181.658 67.462,181.658 67.462,181.406 69.613 C 181.092 72.289,182.244 73.090,188.490 74.539 C 201.955 77.662,206.986 83.370,210.238 99.219 C 211.690 106.295,217.969 108.588,217.969 102.042 C 217.969 87.692,226.816 77.306,241.648 74.244 C 249.444 72.635,249.599 67.206,241.878 66.148 C 228.333 64.291,221.113 56.735,218.610 41.797 C 217.594 35.737,215.103 33.177,212.338 35.352 M221.842 65.112 C 223.625 66.723,225.944 68.432,226.995 68.911 C 229.288 69.956,229.433 70.821,227.423 71.459 C 224.119 72.508,219.406 76.807,217.120 80.859 C 214.222 85.994,213.927 86.062,212.102 82.014 C 210.598 78.679,205.202 73.213,201.952 71.732 C 199.278 70.514,199.468 69.991,203.433 67.668 C 207.340 65.378,210.293 62.138,212.606 57.604 L 214.201 54.479 216.401 58.331 C 217.611 60.450,220.059 63.501,221.842 65.112 M90.781 89.219 C 87.657 92.343,91.260 96.204,118.885 119.341 C 154.325 149.023,165.211 154.215,226.625 170.730 C 238.837 174.014,257.890 179.667,268.965 183.292 C 306.288 195.509,311.885 196.211,327.940 190.689 C 342.397 185.716,344.432 187.327,338.600 199.128 C 330.143 216.239,314.187 224.903,292.969 223.904 C 241.594 221.486,233.631 223.216,202.122 243.636 C 188.393 252.535,184.781 254.065,176.460 254.510 C 162.701 255.244,158.345 251.364,143.334 225.000 C 124.675 192.228,121.602 189.358,75.200 161.343 C 52.662 147.736,50.302 146.950,50.927 153.259 C 51.199 156.001,54.989 158.586,89.288 179.412 C 113.651 194.206,119.760 200.039,130.949 219.187 C 134.337 224.985,139.394 233.639,142.187 238.418 C 159.074 267.312,174.936 270.038,207.091 249.572 C 235.449 231.522,246.529 228.920,285.120 231.246 C 305.566 232.479,310.226 231.823,321.841 226.081 C 337.030 218.571,349.117 202.153,349.193 188.927 C 349.251 178.845,343.583 177.309,327.102 182.943 C 311.775 188.181,307.016 187.597,271.875 176.164 C 261.777 172.879,243.320 167.392,230.859 163.972 C 160.158 144.565,154.286 141.399,101.563 94.263 C 95.062 88.452,92.668 87.332,90.781 89.219 M270.118 106.053 C 269.366 106.224,268.544 107.305,268.292 108.456 C 265.805 119.778,263.748 122.610,256.561 124.607 C 254.027 125.312,251.514 126.029,250.977 126.201 C 250.439 126.373,250.000 127.590,250.000 128.906 C 250.000 130.222,250.439 131.440,250.977 131.612 C 251.514 131.784,253.950 132.478,256.391 133.156 C 259.149 133.921,261.730 135.288,263.208 136.766 C 265.469 139.027,266.063 140.455,268.002 148.289 C 269.016 152.387,273.293 153.015,274.337 149.219 C 276.845 140.105,277.544 138.385,279.483 136.559 C 281.505 134.656,287.736 132.031,290.234 132.031 C 295.138 132.031,292.708 126.190,287.323 125.035 C 279.261 123.306,276.866 120.319,274.628 109.202 C 274.162 106.885,272.268 105.563,270.118 106.053 M274.309 125.781 L 277.342 128.906 274.310 132.031 L 271.277 135.156 268.147 132.025 L 265.016 128.895 267.860 125.880 C 269.424 124.221,270.832 122.818,270.990 122.760 C 271.148 122.703,272.641 124.063,274.309 125.781 M155.134 197.321 C 152.671 199.784,154.953 204.464,161.354 210.077 C 171.737 219.183,194.757 220.086,190.722 211.229 C 189.922 209.474,189.491 209.374,182.634 209.358 C 172.372 209.334,166.328 206.251,161.603 198.633 C 159.852 195.809,157.186 195.269,155.134 197.321 M246.810 282.439 C 244.410 283.022,233.864 285.960,223.372 288.968 C 212.881 291.976,196.690 296.538,187.392 299.106 C 178.095 301.674,169.482 304.299,168.252 304.938 C 158.110 310.214,157.433 325.232,167.062 331.339 C 171.816 334.353,174.156 334.290,199.513 330.469 C 222.857 326.950,223.651 326.890,225.000 328.516 C 227.008 330.935,231.250 329.001,231.250 325.665 C 231.250 323.023,227.081 319.531,223.928 319.531 C 222.412 319.531,210.709 321.125,197.920 323.073 C 170.149 327.302,167.969 326.976,167.969 318.588 C 167.969 313.360,170.623 311.504,182.813 308.206 C 188.613 306.637,206.543 301.648,222.656 297.119 C 267.051 284.642,264.147 284.075,302.265 312.658 C 307.911 316.891,309.580 317.230,311.366 314.506 C 313.203 311.701,312.108 310.323,302.538 303.396 C 297.919 300.053,290.149 294.409,285.270 290.853 C 272.356 281.441,261.081 278.974,246.810 282.439 M95.940 284.364 C 88.404 288.456,85.498 298.916,89.891 306.140 C 92.012 309.628,93.360 310.620,155.489 354.444 C 174.305 367.716,174.644 367.737,223.438 358.678 C 263.718 351.200,264.084 351.180,271.092 356.122 C 278.057 361.034,285.229 358.667,279.808 353.245 C 269.453 342.891,267.839 342.836,221.652 351.257 C 171.771 360.353,178.080 361.253,149.609 340.974 C 138.867 333.323,122.969 322.009,114.280 315.831 C 93.968 301.391,91.579 297.943,98.036 292.390 C 102.824 288.271,102.088 287.986,128.481 304.158 C 138.774 310.465,147.757 315.625,148.442 315.625 C 151.792 315.625,152.805 310.189,149.805 308.312 C 107.020 281.550,103.778 280.108,95.940 284.364 "
            fill="black" fill-rule="evenodd" />
    </g>
</svg>
